<svg width="40" height="40" viewBox="0 0 40 40" fill="none" xmlns="http://www.w3.org/2000/svg">
<circle cx="20" cy="20" r="19.5" stroke="#FF5031"/>
<path d="M19.9337 18.8346C21.2528 18.8346 22.5178 18.3105 23.4504 17.3778C24.383 16.445 24.9069 15.1798 24.9065 13.8607C24.9063 12.5418 24.382 11.2768 23.449 10.3444C22.516 9.41186 21.2508 8.88837 19.9317 8.88892C18.6128 8.88931 17.348 9.41382 16.4157 10.347C15.4835 11.2801 14.9601 12.5455 14.9609 13.8645C14.9631 15.1824 15.4878 16.4458 16.42 17.3774C17.3522 18.3092 18.6158 18.8331 19.9337 18.8347L19.9337 18.8346ZM19.9337 10.0126V10.0124C20.9554 10.0124 21.9353 10.4183 22.6575 11.1408C23.38 11.8633 23.7859 12.8431 23.7859 13.8646C23.7859 14.8863 23.38 15.8662 22.6575 16.5886C21.9352 17.3111 20.9554 17.7168 19.9337 17.7168C18.912 17.7168 17.9322 17.3111 17.2099 16.5886C16.4875 15.8662 16.0815 14.8863 16.0815 13.8646C16.0823 12.8433 16.4884 11.8639 17.2107 11.1416C17.9329 10.4192 18.9122 10.0132 19.9337 10.0124V10.0126Z" fill="#FF5031"/>
<path d="M13.6278 31.1112H26.235C26.755 31.1112 27.2539 30.9046 27.6217 30.5369C27.9895 30.1691 28.1961 29.6702 28.1961 29.1501V28.6373C28.14 26.4828 27.2445 24.4352 25.7007 22.9311C24.1569 21.427 22.0867 20.5852 19.9314 20.5852C17.7759 20.5852 15.7058 21.4269 14.1621 22.9311C12.6185 24.4353 11.723 26.4829 11.6667 28.6373V29.1501C11.6667 29.6702 11.8735 30.1691 12.2413 30.5369C12.6091 30.9047 13.1078 31.1112 13.628 31.1112H13.6278ZM12.7873 28.6373C12.8574 26.1326 14.2342 23.8475 16.4159 22.6149C18.5974 21.3824 21.2652 21.3824 23.4469 22.6149C25.6284 23.8475 27.0052 26.1325 27.0753 28.6373V29.1501C27.0753 29.3729 26.9868 29.5867 26.8293 29.7444C26.6716 29.9019 26.4578 29.9907 26.235 29.9907H13.6278C13.4048 29.9907 13.191 29.9019 13.0335 29.7444C12.8758 29.5867 12.7873 29.3729 12.7873 29.1501L12.7873 28.6373Z" fill="#FF5031"/>
</svg>
